<?xml version="1.0" standalone="no"?>
<!DOCTYPE svg PUBLIC "-//W3C//DTD SVG 20010904//EN"
 "http://www.w3.org/TR/2001/REC-SVG-20010904/DTD/svg10.dtd">
<svg version="1.0" xmlns="http://www.w3.org/2000/svg"
 width="512.000000pt" height="512.000000pt" viewBox="0 0 512.000000 512.000000"
 preserveAspectRatio="xMidYMid meet">
<metadata>
Created by potrace 1.14, written by Peter Selinger 2001-2017
</metadata>
<g transform="translate(0.000000,512.000000) scale(0.100000,-0.100000)"
fill="#000000" stroke="none">
<path d="M345 5046 c-113 -36 -200 -104 -245 -192 l-25 -49 0 -2250 0 -2250
23 -43 c49 -92 123 -149 248 -192 56 -20 98 -20 2209 -20 2096 0 2154 1 2213
19 124 40 200 99 247 190 l25 50 0 2253 0 2253 -29 50 c-49 86 -131 148 -240
181 -65 20 -4364 20 -4426 0z m315 -401 l0 -245 -195 0 -195 0 0 174 c0 181 6
214 43 255 44 48 92 61 225 61 l122 0 0 -245z m0 -2090 l0 -1665 -195 0 -195
0 0 1665 0 1665 195 0 195 0 0 -1665z m2198 1173 c9 -9 12 -76 12 -238 l0
-226 29 -39 c49 -66 83 -74 331 -74 154 -1 219 -4 228 -13 17 -17 17 -309 0
-326 -9 -9 -73 -12 -227 -12 -208 0 -218 -1 -268 -25 -33 -15 -60 -36 -73 -57
-20 -32 -20 -49 -20 -844 0 -617 -3 -813 -12 -822 -17 -17 -379 -17 -396 0 -9
9 -12 202 -12 809 0 708 -2 801 -16 835 -17 40 -29 53 -79 82 -25 14 -67 18
-265 22 l-235 5 0 170 0 170 235 5 c218 5 238 7 276 27 30 16 47 35 63 67 19
42 21 62 21 265 0 166 3 221 13 224 6 3 95 6 197 6 132 1 189 -2 198 -11z
m1287 -2275 c97 -24 199 -80 275 -150 55 -51 79 -83 112 -151 42 -84 43 -88
43 -187 0 -99 -1 -103 -42 -187 -71 -143 -188 -239 -358 -295 -102 -33 -272
-38 -375 -10 -152 40 -284 133 -361 251 -53 82 -64 123 -63 246 0 118 19 179
76 254 160 208 425 296 693 229z m-3485 -988 l0 -245 -117 1 c-146 0 -193 15
-240 77 l-33 44 0 184 0 184 195 0 195 0 0 -245z"/>
<path d="M3930 1371 c-6 -12 -10 -93 -10 -195 l0 -176 -222 -2 -223 -3 0 -30
0 -30 264 -3 c205 -2 266 1 273 10 13 22 10 422 -4 436 -19 19 -66 15 -78 -7z"/>
</g>
</svg>
